<svg xmlns="http://www.w3.org/2000/svg" width="32.771" height="32.771" viewBox="0 0 32.771 32.771">
  <g id="Group_1987" data-name="Group 1987" transform="translate(0 0)">
    <rect id="Rectangle_29" data-name="Rectangle 29" width="32.771" height="32.771" rx="4" transform="translate(0 0)" fill="#795151"/>
    <path id="Path_15" data-name="Path 15" d="M16.184,73.832a14.847,14.847,0,0,0,14.847,14.85.769.769,0,0,0,.751-.6l.766-3.328a.775.775,0,0,0-.447-.884L28.518,82.34a.771.771,0,0,0-.9.219L26.034,84.5a11.851,11.851,0,0,1-5.671-5.668L22.3,77.24a.765.765,0,0,0,.222-.894L20.986,72.76a.773.773,0,0,0-.878-.444l-3.328.769A.764.764,0,0,0,16.184,73.832Z" transform="translate(-7.99 -64.065)" fill="#fff"/>
  </g>
</svg>
