<svg xmlns="http://www.w3.org/2000/svg" width="32.771" height="32.771" viewBox="0 0 32.771 32.771">
  <g id="Group_1988" data-name="Group 1988" transform="translate(0 0)">
    <rect id="Rectangle_30" data-name="Rectangle 30" width="32.771" height="32.771" rx="4" transform="translate(0 0)" fill="#795151"/>
    <g id="Group_61" data-name="Group 61" transform="translate(8.194 10.702)">
      <path id="Path_16" data-name="Path 16" d="M25.746,93.57a2.459,2.459,0,0,1-2.738,0l-6.714-4.477-.109-.076v7.334a1.505,1.505,0,0,0,1.508,1.508h13.37a1.507,1.507,0,0,0,1.508-1.508V89.017l-.109.076Z" transform="translate(-16.184 -85.589)" fill="#fff"/>
      <path id="Path_17" data-name="Path 17" d="M16.825,90.594l6.714,4.477a1.5,1.5,0,0,0,1.675,0l6.714-4.477a1.436,1.436,0,0,0,.641-1.2,1.509,1.509,0,0,0-1.508-1.508H17.692A1.507,1.507,0,0,0,16.184,89.4,1.436,1.436,0,0,0,16.825,90.594Z" transform="translate(-16.184 -87.889)" fill="#fff"/>
    </g>
  </g>
</svg>
